<svg width="50" height="42" viewBox="0 0 50 42" fill="none" xmlns="http://www.w3.org/2000/svg">
<path d="M25.0039 30.2406C17.0158 24.4983 10.6177 29.4271 10.6177 29.4271C19.0143 28.6148 25.0039 34.6092 25.0039 34.6092C25.0039 34.6092 30.9923 28.6148 39.3889 29.4271C39.3889 29.4271 32.9908 24.4983 25.0039 30.2406Z" fill="white"/>
<mask id="mask0_52_498" style="mask-type:luminance" maskUnits="userSpaceOnUse" x="0" y="30" width="50" height="12">
<path d="M0 30.2227H50V41.9307H0V30.2227Z" fill="white"/>
</mask>
<g mask="url(#mask0_52_498)">
<path d="M46.9897 32.4506L46.1606 32.0134C46.1606 32.0134 36.3305 31.0458 30.667 35.1074C30.667 35.1074 35.1694 31.3122 45.8238 31.4568C46.1212 31.4615 42.0979 30.6445 42.0979 30.6445L42.964 30.2287C42.964 30.2287 30.4998 29.9038 25.0036 38.8966C19.5074 29.9038 7.042 30.2287 7.042 30.2287L7.90926 30.6445C7.90926 30.6445 3.88594 31.4615 4.1822 31.4568C14.8366 31.3122 19.3389 35.1074 19.3389 35.1074C13.6767 31.0458 3.84652 32.0134 3.84652 32.0134L3.01749 32.4506L0 33.6416C10.0213 31.3672 21.3984 36.2972 22.3194 39.1677C23.2404 42.0383 25.0036 41.9308 25.0036 41.9308C25.0036 41.9308 26.7668 42.0383 27.6866 39.1677C28.6076 36.2972 39.9847 31.3672 50.0072 33.6416L46.9897 32.4506Z" fill="white"/>
</g>
<path d="M42.6122 24.9475C42.6086 24.7898 42.5465 23.3683 41.6984 21.9049C40.9756 20.6578 39.5696 19.1801 36.8926 18.7895C36.1066 16.7754 33.9205 12.3985 29.5185 11.4727C28.4195 11.241 27.5797 10.7655 26.9382 10.2077C25.4128 8.87931 25.0257 7.08029 25.0042 6.97397C24.9827 7.08029 24.5945 8.87931 23.069 10.2077C22.4287 10.7655 21.5889 11.241 20.4887 11.4727C16.0879 12.3985 13.9007 16.7754 13.1146 18.7895C10.4376 19.1801 9.03158 20.6578 8.31006 21.9049C7.46072 23.3683 7.3998 24.7898 7.39502 24.9475V27.996H10.4304V25.0275C10.4388 24.9057 10.514 24.1077 10.9859 23.3432C11.6238 22.3111 12.7001 21.7831 14.2758 21.7293L15.3831 21.6923L15.6853 20.6267C15.6997 20.573 17.3112 15.2428 21.1147 14.4424C22.768 14.0948 24.0354 13.3912 25.0042 12.5634C25.9718 13.3912 27.2393 14.0948 28.8937 14.4424C32.6961 15.2428 34.3075 20.573 34.3231 20.6267L34.6253 21.6923L35.7315 21.7293C37.3071 21.7831 38.3834 22.3111 39.0213 23.3432C39.4944 24.1077 39.5684 24.9057 39.5768 25.0275V27.996H42.6122V24.9475Z" fill="white"/>
<mask id="mask1_52_498" style="mask-type:luminance" maskUnits="userSpaceOnUse" x="21" y="0" width="8" height="7">
<path d="M21.1821 0H28.5216V6.85804H21.1821V0Z" fill="white"/>
</mask>
<g mask="url(#mask1_52_498)">
<path d="M25.0033 6.76843C26.4285 6.76843 27.6565 5.92506 28.2179 4.71138C27.6075 5.40304 26.7152 5.84025 25.7201 5.84025C23.8804 5.84025 22.3884 4.34942 22.3884 2.50978C22.3884 1.5147 22.8256 0.621164 23.5185 0.0119324C22.3048 0.573381 21.4614 1.8014 21.4614 3.22653C21.4614 5.18204 23.0466 6.76843 25.0033 6.76843Z" fill="white"/>
</g>
<path d="M25.0037 0.973602L25.4684 2.40709H26.9759L25.7575 3.29227L26.2222 4.72575L25.0037 3.84057L23.784 4.72575L24.2499 3.29227L23.0303 2.40709H24.5378L25.0037 0.973602Z" fill="white"/>
<mask id="mask2_52_498" style="mask-type:luminance" maskUnits="userSpaceOnUse" x="19" y="15" width="12" height="12">
<path d="M19.4648 15.4459H30.474V26.455H19.4648V15.4459Z" fill="white"/>
</mask>
<g mask="url(#mask2_52_498)">
<path d="M30.4584 20.8047C29.9782 20.205 29.3594 19.7487 28.6546 19.4716C28.9568 18.7751 29.0715 18.0142 28.9867 17.2509C28.9724 17.1195 28.8684 17.0143 28.7358 17C27.9737 16.9164 27.2128 17.0311 26.5163 17.3321C26.238 16.6273 25.7817 16.0085 25.182 15.5283C25.0781 15.4447 24.9311 15.4447 24.8272 15.5283C24.2287 16.0085 23.7712 16.6273 23.4941 17.3321C22.7976 17.0299 22.0367 16.9152 21.2734 17C21.1419 17.0143 21.038 17.1183 21.0237 17.2509C20.9389 18.0142 21.0535 18.7739 21.3558 19.4704C20.651 19.7487 20.031 20.205 19.552 20.8047C19.4684 20.9086 19.4684 21.0556 19.552 21.1595C20.0322 21.7592 20.651 22.2155 21.3558 22.4926C21.0535 23.1891 20.9389 23.95 21.0225 24.7134C21.038 24.8448 21.1419 24.9499 21.2734 24.9642C21.437 24.9821 21.5995 24.9917 21.7607 24.9917C22.358 24.9917 22.9458 24.8686 23.4929 24.6309C23.7712 25.3357 24.2275 25.9557 24.8272 26.4359C24.8798 26.4777 24.9419 26.498 25.0052 26.498C25.0673 26.498 25.1306 26.4765 25.182 26.4359C25.7817 25.9557 26.2392 25.3357 26.5163 24.6309C27.0634 24.8686 27.6512 24.9917 28.2485 24.9917C28.4109 24.9917 28.5734 24.9821 28.7358 24.9642C28.8684 24.9499 28.9724 24.8448 28.9867 24.7134C29.0715 23.95 28.9568 23.1891 28.6546 22.4926C29.3594 22.2155 29.9782 21.7592 30.4584 21.1595C30.542 21.0556 30.542 20.9086 30.4584 20.8047ZM25.5666 23.3085C25.495 23.2369 25.4269 23.1628 25.3624 23.0875C25.3671 23.0804 25.3707 23.0732 25.3755 23.066C25.4197 23.0015 25.4615 22.9346 25.5021 22.8677C25.5141 22.8474 25.526 22.8271 25.538 22.8068C25.5822 22.7304 25.6252 22.6539 25.6646 22.5739C25.7494 22.6014 25.8342 22.6264 25.919 22.6491C25.9417 22.6551 25.9644 22.6611 25.9883 22.6671C26.0636 22.685 26.1388 22.7029 26.2153 22.7172C26.2248 22.7184 26.2332 22.722 26.2416 22.7232C26.2499 22.8235 26.2535 22.9251 26.2535 23.0242C26.2535 23.2858 26.2248 23.5451 26.1723 23.7995C25.9549 23.6574 25.7506 23.4937 25.5666 23.3085ZM24.648 23.0875C24.5835 23.1628 24.5154 23.2369 24.4437 23.3085C24.2586 23.4937 24.0555 23.6574 23.8381 23.7995C23.7855 23.5451 23.7569 23.287 23.7569 23.0254C23.7569 22.9251 23.7604 22.8235 23.7688 22.7232C23.776 22.722 23.7843 22.7196 23.7927 22.7184C23.8703 22.7029 23.9468 22.6862 24.0233 22.6671C24.046 22.6611 24.0686 22.6551 24.0902 22.6491C24.1762 22.6264 24.261 22.6025 24.3446 22.5739C24.384 22.6527 24.427 22.7304 24.4712 22.8068C24.4832 22.8271 24.4963 22.8486 24.5083 22.8689C24.5477 22.9346 24.5895 23.0003 24.6325 23.0637C24.6385 23.072 24.6432 23.0804 24.648 23.0875ZM24.4437 18.6557C24.5154 18.7274 24.5835 18.8014 24.648 18.8767C24.6432 18.8838 24.6385 18.891 24.6337 18.8994C24.5895 18.9639 24.5477 19.0296 24.5083 19.0965C24.4963 19.1168 24.4832 19.1359 24.4724 19.1562C24.4282 19.2327 24.3852 19.3103 24.3446 19.3891C24.261 19.3617 24.1762 19.3378 24.0913 19.3151C24.0686 19.3091 24.046 19.3031 24.0233 19.2972C23.948 19.2781 23.8715 19.2613 23.7951 19.2458C23.7855 19.2446 23.7772 19.2422 23.7688 19.241C23.7604 19.1395 23.7569 19.0391 23.7569 18.9388C23.7569 18.6772 23.7855 18.418 23.8381 18.1635C24.0555 18.3069 24.2586 18.4705 24.4437 18.6557ZM25.3624 18.8767C25.4257 18.8014 25.495 18.7274 25.5666 18.6557C25.7506 18.4705 25.9549 18.3069 26.1723 18.1647C26.2248 18.4192 26.2535 18.6772 26.2535 18.9388C26.2535 19.0391 26.2499 19.1395 26.2416 19.241C26.2332 19.2422 26.2248 19.2446 26.2153 19.247C26.1388 19.2613 26.0636 19.2781 25.9871 19.2972C25.9644 19.3031 25.9417 19.3091 25.919 19.3151C25.8342 19.3378 25.7494 19.3617 25.6646 19.3891C25.6252 19.3103 25.5822 19.2327 25.538 19.1562C25.526 19.1359 25.5141 19.1168 25.5033 19.0965C25.4615 19.0284 25.4197 18.9627 25.3755 18.897C25.3707 18.8898 25.3671 18.8826 25.3624 18.8767ZM26.5892 20.966C26.5988 20.9708 26.6071 20.9767 26.6155 20.9815C26.6071 20.9875 26.5988 20.9935 26.5892 20.9982C26.539 21.0281 26.4889 21.0556 26.4375 21.0831C26.4124 21.0974 26.3885 21.1105 26.3634 21.1237C26.287 21.1619 26.2093 21.1989 26.1305 21.2324C25.9883 21.2933 25.9202 21.4558 25.9776 21.5991C26.0098 21.6791 26.0385 21.7604 26.0648 21.8416C26.0731 21.8691 26.0815 21.8966 26.0887 21.9228C26.1054 21.979 26.1221 22.0339 26.1365 22.0901C26.1388 22.1008 26.1412 22.1104 26.1436 22.1199C26.1329 22.1175 26.1221 22.1152 26.1126 22.1128C26.0564 22.0984 26.0015 22.0829 25.9465 22.0662C25.919 22.0578 25.8916 22.0507 25.8653 22.0423C25.7829 22.016 25.7028 21.9873 25.6228 21.9551C25.4794 21.8977 25.3158 21.9658 25.2549 22.108C25.2214 22.1868 25.1856 22.2645 25.1462 22.3409C25.1342 22.366 25.1199 22.3899 25.1067 22.4138C25.0793 22.4652 25.0518 22.5165 25.0219 22.5667C25.0159 22.5763 25.01 22.5846 25.0052 22.593C24.9992 22.5846 24.9932 22.5751 24.9885 22.5667C24.9586 22.5165 24.9311 22.4664 24.9037 22.4162C24.8905 22.3911 24.8762 22.366 24.863 22.3409C24.8248 22.2645 24.7878 22.1868 24.7543 22.108C24.6946 21.9658 24.5309 21.8977 24.3876 21.9551C24.3088 21.9873 24.2275 22.016 24.1463 22.0423C24.1176 22.0507 24.0902 22.059 24.0615 22.0674C24.0077 22.0841 23.9528 22.0996 23.8978 22.114C23.8883 22.1164 23.8775 22.1175 23.8668 22.1211C23.8692 22.1104 23.8715 22.1008 23.8739 22.0913C23.8883 22.0339 23.905 21.9778 23.9217 21.9216C23.9301 21.8954 23.9361 21.8691 23.9456 21.8428C23.9719 21.7604 24.0006 21.6803 24.0328 21.6003C24.0902 21.457 24.0221 21.2933 23.8799 21.2324C23.8011 21.1989 23.7234 21.1631 23.647 21.1237C23.6219 21.1117 23.598 21.0974 23.5741 21.0842C23.5215 21.0568 23.4714 21.0293 23.4212 20.9994C23.4116 20.9935 23.4033 20.9875 23.3949 20.9827C23.4033 20.9767 23.4116 20.9708 23.4212 20.966C23.4714 20.9361 23.5215 20.9086 23.5729 20.8812C23.598 20.868 23.6219 20.8537 23.647 20.8406C23.7234 20.8023 23.8011 20.7653 23.8799 20.7318C24.0221 20.6721 24.0902 20.5085 24.0328 20.3651C24.0006 20.2851 23.9719 20.2038 23.9456 20.1226C23.9372 20.0963 23.9301 20.0689 23.9217 20.0426C23.905 19.9864 23.8883 19.9303 23.8739 19.8741C23.8715 19.8646 23.8692 19.8538 23.8668 19.8443C23.8775 19.8467 23.8871 19.8491 23.8978 19.8514C23.954 19.8658 24.0089 19.8813 24.0651 19.898C24.0913 19.9064 24.1188 19.9136 24.1451 19.9219C24.2263 19.9494 24.3076 19.9781 24.3876 20.0091C24.4055 20.0163 24.4234 20.0223 24.4414 20.0259C24.4461 20.0259 24.4521 20.0259 24.4569 20.027C24.4688 20.0282 24.4808 20.0306 24.4927 20.0306C24.4939 20.0306 24.4939 20.0306 24.4951 20.0306C24.519 20.0294 24.5429 20.0259 24.5656 20.0199C24.5716 20.0175 24.5775 20.0163 24.5835 20.0139C24.605 20.0067 24.6253 19.9984 24.6444 19.9852C24.6456 19.9852 24.648 19.984 24.6492 19.984C24.6695 19.9709 24.6862 19.9542 24.703 19.9351C24.7065 19.9315 24.7113 19.9267 24.7149 19.9219C24.7304 19.9016 24.7448 19.8813 24.7543 19.8574C24.7878 19.7774 24.8248 19.6997 24.863 19.6233C24.8762 19.5982 24.8905 19.5743 24.9037 19.5492C24.9311 19.499 24.9586 19.4477 24.9885 19.3987C24.9932 19.3891 24.9992 19.3808 25.0052 19.3712C25.0112 19.3808 25.0159 19.3891 25.0219 19.3975C25.0518 19.4477 25.0793 19.4979 25.1067 19.5492C25.1199 19.5743 25.1342 19.5982 25.1473 19.6245C25.1856 19.7009 25.2226 19.7774 25.2561 19.8574C25.3158 19.9996 25.4782 20.0677 25.6228 20.0091C25.7028 19.9781 25.7841 19.9494 25.8653 19.9219C25.8916 19.9136 25.9178 19.9064 25.9441 19.8992C26.0003 19.8813 26.0564 19.8658 26.1138 19.8514C26.1233 19.8491 26.1329 19.8467 26.1436 19.8443C26.1412 19.8538 26.1388 19.8646 26.1365 19.8741C26.1221 19.9303 26.1066 19.9864 26.0899 20.0414C26.0815 20.0689 26.0731 20.0963 26.0648 20.1226C26.0385 20.2038 26.0098 20.2851 25.9776 20.3651C25.9202 20.5085 25.9883 20.6721 26.1305 20.7318C26.2093 20.7653 26.287 20.8023 26.3634 20.8406C26.3885 20.8537 26.4136 20.868 26.4375 20.8812C26.4889 20.9074 26.5402 20.9361 26.5892 20.966ZM23.2635 19.7451C23.2647 19.7535 23.2683 19.763 23.2695 19.7714C23.285 19.8479 23.3017 19.9243 23.3208 20.0008C23.3268 20.0223 23.3316 20.045 23.3376 20.0677C23.3603 20.1525 23.3854 20.2385 23.4128 20.3221C23.334 20.3615 23.2563 20.4045 23.1799 20.4487C23.1596 20.4607 23.1393 20.4726 23.119 20.4846C23.0521 20.5252 22.9852 20.567 22.9207 20.6112C22.9135 20.616 22.9063 20.6208 22.8992 20.6255C22.8239 20.561 22.7498 20.4917 22.6782 20.4201C22.493 20.2349 22.3294 20.0306 22.186 19.8132C22.5372 19.7404 22.8992 19.7165 23.2635 19.7451ZM22.8992 21.3387C22.9075 21.3447 22.9159 21.3494 22.9242 21.3554C22.9876 21.3984 23.0521 21.439 23.1178 21.4785C23.1393 21.4916 23.1596 21.5035 23.1799 21.5155C23.2563 21.5597 23.334 21.6027 23.4128 21.6421C23.3854 21.7257 23.3603 21.8105 23.3376 21.8966C23.3316 21.9193 23.3256 21.9408 23.3208 21.9634C23.3017 22.0399 23.2838 22.1164 23.2695 22.194C23.2671 22.2024 23.2647 22.2107 23.2635 22.2191C22.8992 22.2466 22.5372 22.2239 22.186 22.151C22.3294 21.9324 22.493 21.7293 22.6782 21.5442C22.7498 21.4713 22.8239 21.4032 22.8992 21.3387ZM26.7457 22.2191C26.7445 22.2107 26.7421 22.2024 26.7409 22.194C26.7254 22.1164 26.7087 22.0399 26.6895 21.9646C26.6836 21.9419 26.6776 21.9193 26.6716 21.8966C26.6489 21.8105 26.625 21.7257 26.5976 21.6421C26.5988 21.6409 26.5999 21.6397 26.6011 21.6397C26.6788 21.6003 26.754 21.5585 26.8293 21.5155C26.8508 21.5035 26.8711 21.4916 26.8914 21.4785C26.9571 21.439 27.0228 21.3972 27.0873 21.3542C27.0945 21.3482 27.1029 21.3447 27.1112 21.3387C27.1865 21.4032 27.2593 21.4713 27.3322 21.543C27.5174 21.7281 27.681 21.9324 27.8244 22.151C27.472 22.2239 27.11 22.2466 26.7457 22.2191ZM27.1112 20.6255C27.1029 20.6196 27.0957 20.616 27.0873 20.61C27.0228 20.567 26.9571 20.5252 26.8914 20.4846C26.8711 20.4726 26.8508 20.4607 26.8293 20.4487C26.7529 20.4045 26.6764 20.3615 26.5964 20.3221C26.625 20.2385 26.6489 20.1537 26.6716 20.0689C26.6776 20.045 26.6836 20.0223 26.6895 19.9996C26.7087 19.9231 26.7254 19.8479 26.7397 19.7702C26.7421 19.7619 26.7445 19.7535 26.7457 19.7451C27.11 19.7165 27.472 19.7404 27.8232 19.8132C27.6798 20.0306 27.5162 20.2349 27.331 20.4201C27.2593 20.4917 27.1865 20.561 27.1112 20.6255ZM28.442 17.5459C28.4718 18.1504 28.3584 18.7477 28.1099 19.2972C27.6882 19.1908 27.251 19.1502 26.8126 19.1741C26.8174 19.0953 26.8209 19.0176 26.8209 18.9388C26.8209 18.5792 26.7744 18.2244 26.6883 17.878C27.2378 17.6283 27.8375 17.5149 28.442 17.5459ZM25.0052 16.122C25.4544 16.5293 25.796 17.0323 26.0086 17.5961C25.7028 17.7813 25.4185 17.9999 25.1653 18.2543C25.1091 18.3093 25.0566 18.3678 25.0052 18.4251C24.9526 18.3678 24.9001 18.3093 24.8451 18.2543C24.5919 17.9999 24.3076 17.7813 24.0018 17.5961C24.2132 17.0323 24.5548 16.5293 25.0052 16.122ZM21.5684 17.5459C22.1741 17.5149 22.7725 17.6295 23.322 17.878C23.2348 18.2244 23.1882 18.5792 23.1882 18.9388C23.1882 19.0176 23.193 19.0953 23.1966 19.1741C22.7582 19.1502 22.321 19.1908 21.8993 19.2972C21.652 18.7477 21.5385 18.1504 21.5684 17.5459ZM20.1457 20.9815C20.5518 20.5324 21.0547 20.1907 21.6198 19.9781C21.8037 20.2851 22.0235 20.5682 22.2768 20.8214C22.3329 20.8776 22.3903 20.9301 22.4476 20.9815C22.3903 21.0341 22.3317 21.0866 22.2768 21.1428C22.0235 21.396 21.8049 21.6791 21.6198 21.9861C21.0559 21.7735 20.5518 21.4319 20.1457 20.9815ZM21.5684 24.4183C21.5385 23.8126 21.652 23.2142 21.9005 22.6659C22.2469 22.7519 22.6029 22.7985 22.9625 22.7985C23.0401 22.7985 23.119 22.7949 23.1966 22.7901C23.193 22.8689 23.1882 22.9466 23.1882 23.0254C23.1882 23.3838 23.2348 23.7398 23.322 24.0862C22.7725 24.3347 22.1741 24.4494 21.5684 24.4183ZM25.0052 25.8422C24.5548 25.4349 24.2132 24.932 24.0018 24.3669C24.3076 24.183 24.5907 23.9632 24.8451 23.7099C24.9001 23.6538 24.9526 23.5964 25.0052 23.5391C25.0566 23.5964 25.1091 23.6538 25.1653 23.7099C25.4185 23.9632 25.7028 24.183 26.0086 24.3669C25.7972 24.932 25.4544 25.4349 25.0052 25.8422ZM28.442 24.4183C27.8351 24.4482 27.2378 24.3347 26.6883 24.0862C26.7744 23.7398 26.8209 23.3838 26.8209 23.0254C26.8209 22.9466 26.8174 22.8689 26.8126 22.7901C26.8914 22.7937 26.9703 22.7973 27.0479 22.7973C27.4075 22.7973 27.7635 22.7519 28.1099 22.6647C28.3584 23.2154 28.4718 23.8138 28.442 24.4183ZM28.3906 21.9861C28.2055 21.6791 27.9868 21.396 27.7336 21.1428C27.6774 21.0866 27.6201 21.0341 27.5616 20.9815C27.6201 20.9301 27.6774 20.8776 27.7336 20.8214C27.9868 20.5682 28.2055 20.2839 28.3906 19.9781C28.9544 20.1907 29.4574 20.5324 29.8647 20.9815C29.4574 21.4319 28.9544 21.7735 28.3906 21.9861Z" fill="#CB9B69"/>
</g>
</svg>
